<svg width="135" height="135" viewBox="0 0 135 135" fill="none" xmlns="http://www.w3.org/2000/svg">
<g clip-path="url(#clip0_113_1452)">
<path fill-rule="evenodd" clip-rule="evenodd" d="M67.2566 116.017C94.1865 116.017 116.018 94.1864 116.018 67.2565C116.018 40.3265 94.1865 18.4955 67.2566 18.4955C40.3266 18.4955 18.4956 40.3265 18.4956 67.2565C18.4956 94.1864 40.3266 116.017 67.2566 116.017ZM117.699 67.2565C117.699 95.115 95.1151 117.699 67.2566 117.699C39.398 117.699 16.8142 95.115 16.8142 67.2565C16.8142 39.3979 39.398 16.8141 67.2566 16.8141C95.1151 16.8141 117.699 39.3979 117.699 67.2565Z" fill="#FFF308" fill-opacity="0.2"/>
<path fill-rule="evenodd" clip-rule="evenodd" d="M66.9764 109.292C90.3466 109.292 109.292 90.3465 109.292 66.9762C109.292 43.606 90.3466 24.6607 66.9764 24.6607C43.6061 24.6607 24.6608 43.606 24.6608 66.9762C24.6608 90.3465 43.6061 109.292 66.9764 109.292ZM111.534 66.9762C111.534 91.5846 91.5847 111.534 66.9764 111.534C42.368 111.534 22.4189 91.5846 22.4189 66.9762C22.4189 42.3679 42.368 22.4188 66.9764 22.4188C91.5847 22.4188 111.534 42.3679 111.534 66.9762Z" fill="#FFF308" fill-opacity="0.6"/>
<path fill-rule="evenodd" clip-rule="evenodd" d="M66.9763 104.808C87.8702 104.808 104.808 87.8701 104.808 66.9762C104.808 46.0823 87.8702 29.1445 66.9763 29.1445C46.0824 29.1445 29.1445 46.0823 29.1445 66.9762C29.1445 87.8701 46.0824 104.808 66.9763 104.808Z" fill="#FFEC65"/>
</g>
<defs>
<clipPath id="clip0_113_1452">
<rect width="100.885" height="100.885" fill="white" transform="translate(16.8142 16.8141)"/>
</clipPath>
</defs>
</svg>
