<svg width="135" height="135" viewBox="0 0 135 135" fill="none" xmlns="http://www.w3.org/2000/svg">
<path d="M101.902 98.0588C103.294 96.6241 101.949 94.3464 99.9552 94.5005C98.7456 94.5939 97.523 94.6415 96.2893 94.6415C70.3887 94.6415 49.3922 73.6615 49.3922 47.7813C49.3922 39.8213 51.3784 32.3249 54.8827 25.7599C55.8253 23.994 54.2717 21.849 52.3985 22.5578C34.938 29.1646 22.5222 46.0506 22.5222 65.8387C22.5222 91.3848 43.215 112.094 68.7407 112.094C81.7496 112.094 93.5031 106.715 101.902 98.0588Z" fill="#303030" fill-opacity="0.7"/>
<path fill-rule="evenodd" clip-rule="evenodd" d="M82.8786 36.2997C82.6542 35.9797 82.3639 35.5062 81.4864 34.2776C81.5047 34.2959 77.2857 28.8759 77.2857 28.8759C76.7666 28.209 76.898 28.0978 77.5735 28.6232L82.9551 32.8089C84.162 33.671 84.6478 33.9738 84.972 34.2011C85.2921 33.9767 85.7656 33.6864 86.9941 32.8089C86.9758 32.8272 92.3959 28.6082 92.3959 28.6082C93.0628 28.0891 93.174 28.2205 92.6485 28.896L88.4628 34.2776C87.6008 35.4845 87.2979 35.9703 87.0707 36.2946C87.295 36.6146 87.5853 37.0881 88.4628 38.3167C88.4446 38.2984 92.6636 43.7184 92.6636 43.7184C93.1826 44.3853 93.0513 44.4965 92.3757 43.9711C92.3757 43.9711 86.9941 39.7854 86.9941 39.7854C85.7872 38.9233 85.3015 38.6205 84.9772 38.3932C84.6572 38.6176 84.1836 38.9079 82.9551 39.7854C82.9734 39.7671 77.5534 43.9861 77.5534 43.9861C76.8865 44.5052 76.7753 44.3738 77.3007 43.6983L81.4864 38.3167C82.3484 37.1098 82.6513 36.624 82.8786 36.2997Z" fill="white"/>
<path fill-rule="evenodd" clip-rule="evenodd" d="M106.833 64.7124C106.841 64.7209 104.875 62.1944 104.875 62.1944C104.631 61.8811 104.691 61.8276 105.006 62.0729L107.518 64.0268C108.082 64.4292 108.308 64.5706 108.46 64.6766C108.609 64.5719 108.83 64.4364 109.404 64.0268C109.395 64.0353 111.922 62.0687 111.922 62.0687C112.235 61.8248 112.289 61.8849 112.043 62.2002L110.089 64.7124C109.687 65.2758 109.546 65.5025 109.44 65.6539C109.544 65.8033 109.68 66.0243 110.089 66.5978C110.081 66.5893 112.048 69.1158 112.048 69.1158C112.291 69.4291 112.231 69.4826 111.916 69.2373L109.404 67.2834C108.84 66.881 108.614 66.7396 108.462 66.6335C108.313 66.7383 108.092 66.8738 107.518 67.2834C107.527 67.2749 105 69.2415 105 69.2415C104.687 69.4854 104.634 69.4253 104.879 69.11L106.833 66.5978C107.235 66.0344 107.377 65.8077 107.483 65.6563C107.378 65.5069 107.242 65.2859 106.833 64.7124Z" fill="white"/>
</svg>
