<svg width="135" height="135" viewBox="0 0 135 135" fill="none" xmlns="http://www.w3.org/2000/svg">
<g clip-path="url(#clip0_113_1453)">
<path fill-rule="evenodd" clip-rule="evenodd" d="M67.2566 116.017C94.1865 116.017 116.018 94.1864 116.018 67.2565C116.018 40.3265 94.1865 18.4955 67.2566 18.4955C40.3266 18.4955 18.4956 40.3265 18.4956 67.2565C18.4956 94.1864 40.3266 116.017 67.2566 116.017ZM117.699 67.2565C117.699 95.115 95.1151 117.699 67.2566 117.699C39.398 117.699 16.8142 95.115 16.8142 67.2565C16.8142 39.3979 39.398 16.8141 67.2566 16.8141C95.1151 16.8141 117.699 39.3979 117.699 67.2565Z" fill="#FFF308" fill-opacity="0.2"/>
<path fill-rule="evenodd" clip-rule="evenodd" d="M66.9764 109.292C90.3466 109.292 109.292 90.3465 109.292 66.9762C109.292 43.606 90.3466 24.6607 66.9764 24.6607C43.6061 24.6607 24.6608 43.606 24.6608 66.9762C24.6608 90.3465 43.6061 109.292 66.9764 109.292ZM111.534 66.9762C111.534 91.5846 91.5847 111.534 66.9764 111.534C42.368 111.534 22.4189 91.5846 22.4189 66.9762C22.4189 42.3679 42.368 22.4188 66.9764 22.4188C91.5847 22.4188 111.534 42.3679 111.534 66.9762Z" fill="#FFF308" fill-opacity="0.6"/>
<path fill-rule="evenodd" clip-rule="evenodd" d="M66.9763 104.808C87.8702 104.808 104.808 87.8701 104.808 66.9762C104.808 46.0823 87.8702 29.1445 66.9763 29.1445C46.0824 29.1445 29.1445 46.0823 29.1445 66.9762C29.1445 87.8701 46.0824 104.808 66.9763 104.808Z" fill="#FFEC65"/>
</g>
<path d="M117.219 51.2006C117.228 50.9489 117.232 50.6961 117.232 50.4424C117.232 38.0608 107.174 28.0235 94.7663 28.0235C84.9239 28.0235 76.5598 34.3397 73.5222 43.132C71.3407 41.9959 68.86 41.3536 66.229 41.3536C57.5103 41.3536 50.4424 48.4068 50.4424 57.1074C50.4424 65.808 57.5103 72.8612 66.229 72.8612L94.7965 72.8612H111.767C118.139 72.8612 123.304 67.7069 123.304 61.3488C123.304 56.9586 120.841 53.1424 117.219 51.2006Z" fill="white"/>
<path d="M52.3029 91.1322C52.3081 90.9764 52.3107 90.8199 52.3107 90.6628C52.3107 82.998 46.121 76.7845 38.4857 76.7845C32.4289 76.7845 27.2817 80.6945 25.4125 86.1373C24.07 85.4341 22.5434 85.0364 20.9243 85.0364C15.5589 85.0364 11.2095 89.4027 11.2095 94.7888C11.2095 100.175 15.5589 104.541 20.9243 104.541L38.5043 104.541H48.9478C52.8687 104.541 56.0471 101.35 56.0471 97.4144C56.0471 94.6967 54.5317 92.3343 52.3029 91.1322Z" fill="white"/>
<defs>
<clipPath id="clip0_113_1453">
<rect width="100.885" height="100.885" fill="white" transform="translate(16.8142 16.8141)"/>
</clipPath>
</defs>
</svg>
