<svg width="135" height="135" viewBox="0 0 135 135" fill="none" xmlns="http://www.w3.org/2000/svg">
<path d="M109.604 33.4279C109.608 33.3084 109.61 33.1883 109.61 33.0678C109.61 27.1865 104.891 22.4188 99.0689 22.4188C94.4505 22.4188 90.5258 25.419 89.1005 29.5953C88.0769 29.0557 86.9129 28.7506 85.6783 28.7506C81.5872 28.7506 78.2708 32.1009 78.2708 36.2337C78.2708 40.3664 81.5872 43.7167 85.6783 43.7167L99.0831 43.7167H107.046C110.036 43.7167 112.459 41.2684 112.459 38.2483C112.459 36.163 111.304 34.3503 109.604 33.4279Z" fill="white"/>
<path d="M102.024 98.0588C103.416 96.6241 102.071 94.3464 100.077 94.5005C98.8674 94.5939 97.6448 94.6415 96.4112 94.6415C70.5106 94.6415 49.514 73.6615 49.514 47.7813C49.514 39.8213 51.5002 32.3249 55.0045 25.7599C55.9471 23.994 54.3936 21.849 52.5203 22.5578C35.0598 29.1646 22.644 46.0506 22.644 65.8387C22.644 91.3848 43.3368 112.094 68.8626 112.094C81.8714 112.094 93.6249 106.715 102.024 98.0588Z" fill="#303030" fill-opacity="0.7"/>
<path d="M52.6681 91.1322C52.6733 90.9764 52.6759 90.8199 52.6759 90.6628C52.6759 82.998 46.4863 76.7845 38.851 76.7845C32.7941 76.7845 27.647 80.6945 25.7777 86.1373C24.4352 85.4341 22.9086 85.0364 21.2895 85.0364C15.9242 85.0364 11.5747 89.4027 11.5747 94.7888C11.5747 100.175 15.9242 104.541 21.2895 104.541L38.8696 104.541H49.3131C53.2339 104.541 56.4124 101.35 56.4124 97.4144C56.4124 94.6967 54.897 92.3343 52.6681 91.1322Z" fill="white"/>
</svg>
