<svg width="143" height="125" viewBox="0 0 143 125" fill="none" xmlns="http://www.w3.org/2000/svg">
<path d="M92.4487 61.4114C92.4585 61.1148 92.4635 60.8169 92.4635 60.5179C92.4635 45.9276 80.6812 34.0997 66.1469 34.0997C54.6174 34.0997 44.8195 41.5427 41.2612 51.9034C38.7058 50.5647 35.7998 49.8078 32.7178 49.8078C22.5046 49.8078 14.2251 58.1193 14.2251 68.3719C14.2251 78.6246 22.5046 86.936 32.7178 86.936L66.1469 86.936C66.1587 86.936 66.1705 86.936 66.1824 86.936H86.0621C93.5256 86.936 99.576 80.8623 99.576 73.3699C99.576 68.1966 96.6914 63.6996 92.4487 61.4114Z" fill="#303030" fill-opacity="0.7"/>
<path d="M121.647 51.0203C121.657 50.7236 121.662 50.4258 121.662 50.1267C121.662 35.5364 109.88 23.7086 95.3457 23.7086C83.8161 23.7086 74.0183 31.1516 70.46 41.5122C67.9045 40.1735 64.9986 39.4167 61.9165 39.4167C51.7033 39.4167 43.4238 47.7281 43.4238 57.9808C43.4238 68.2334 51.7033 76.5449 61.9165 76.5449L95.3811 76.5448H115.261C122.724 76.5448 128.775 70.4711 128.775 62.9788C128.775 57.8054 125.89 53.3084 121.647 51.0203Z" fill="white"/>
</svg>
