<svg width="135" height="135" viewBox="0 0 135 135" fill="none" xmlns="http://www.w3.org/2000/svg">
<path d="M109.274 55.0008C109.286 54.6468 109.292 54.2913 109.292 53.9345C109.292 36.5229 95.3652 22.408 78.1858 22.408C64.5578 22.408 52.9768 31.2902 48.7709 43.6543C45.7504 42.0567 42.3155 41.1535 38.6726 41.1535C26.6005 41.1535 16.8142 51.072 16.8142 63.3072C16.8142 75.5424 26.6005 85.4609 38.6726 85.4609L78.1858 85.461C78.1997 85.461 78.2137 85.4609 78.2276 85.4609H101.726C110.547 85.4609 117.699 78.2127 117.699 69.2717C117.699 63.098 114.289 57.7314 109.274 55.0008Z" fill="white"/>
<path fill-rule="evenodd" clip-rule="evenodd" d="M54.199 91.6367C52.7271 91.1584 51.1461 91.9639 50.6678 93.4359L41.1193 122.823C40.6411 124.295 41.4466 125.876 42.9186 126.354C44.3905 126.833 45.9715 126.027 46.4497 124.555L55.9982 95.1678C56.4765 93.6959 55.671 92.1149 54.199 91.6367ZM87.928 91.6367C86.456 91.1584 84.8751 91.9639 84.3968 93.4359L74.8483 122.823C74.37 124.295 75.1756 125.876 76.6475 126.354C78.1195 126.833 79.7004 126.027 80.1787 124.555L89.7272 95.1678C90.2054 93.6959 89.3999 92.1149 87.928 91.6367ZM61.9514 93.4359C62.4297 91.9639 64.0106 91.1584 65.4826 91.6367C66.9545 92.1149 67.7601 93.6959 67.2818 95.1678L60.0407 117.454C59.5624 118.926 57.9814 119.731 56.5095 119.253C55.0376 118.775 54.232 117.194 54.7103 115.722L61.9514 93.4359ZM99.072 91.6367C97.6 91.1584 96.0191 91.9639 95.5408 93.4359L88.2997 115.722C87.8214 117.194 88.6269 118.775 90.0989 119.253C91.5708 119.731 93.1518 118.926 93.6301 117.454L100.871 95.1678C101.349 93.6959 100.544 92.1149 99.072 91.6367ZM39.3844 93.4359C39.8627 91.9639 41.4437 91.1584 42.9156 91.6367C44.3876 92.1149 45.1931 93.6959 44.7148 95.1678L39.781 110.352C39.3028 111.824 37.7218 112.63 36.2499 112.152C34.7779 111.673 33.9724 110.092 34.4507 108.62L39.3844 93.4359ZM76.7655 91.6367C75.2935 91.1584 73.7126 91.9639 73.2343 93.4359L68.3005 108.62C67.8222 110.092 68.6278 111.673 70.0997 112.152C71.5717 112.63 73.1526 111.824 73.6309 110.352L78.5647 95.1678C79.0429 93.6959 78.2374 92.1149 76.7655 91.6367Z" fill="#B4F5F2"/>
</svg>
