<svg width="135" height="135" viewBox="0 0 135 135" fill="none" xmlns="http://www.w3.org/2000/svg">
<path d="M109.274 55.0008C109.286 54.6468 109.292 54.2913 109.292 53.9345C109.292 36.5229 95.3652 22.408 78.1858 22.408C64.5578 22.408 52.9768 31.2902 48.7709 43.6543C45.7504 42.0567 42.3155 41.1535 38.6726 41.1535C26.6005 41.1535 16.8142 51.072 16.8142 63.3072C16.8142 75.5424 26.6005 85.4609 38.6726 85.4609L78.1858 85.461C78.1997 85.461 78.2137 85.4609 78.2276 85.4609H101.726C110.547 85.4609 117.699 78.2127 117.699 69.2717C117.699 63.098 114.289 57.7314 109.274 55.0008Z" fill="white"/>
<path fill-rule="evenodd" clip-rule="evenodd" d="M64.6796 93.4359C65.1578 91.9639 66.7388 91.1584 68.2107 91.6367C69.6827 92.1149 70.4882 93.6959 70.01 95.1678L60.4615 124.555C59.9832 126.027 58.4022 126.833 56.9303 126.354C55.4583 125.876 54.6528 124.295 55.1311 122.823L64.6796 93.4359ZM75.9631 93.4359C76.4414 91.9639 78.0224 91.1584 79.4943 91.6367C80.9663 92.1149 81.7718 93.6959 81.2935 95.1678L74.0524 117.454C73.5741 118.926 71.9932 119.731 70.5212 119.253C69.0493 118.775 68.2437 117.194 68.722 115.722L75.9631 93.4359ZM56.9273 91.6367C55.4554 91.1584 53.8744 91.9639 53.3962 93.4359L48.4624 108.62C47.9841 110.092 48.7897 111.673 50.2616 112.152C51.7335 112.63 53.3145 111.824 53.7928 110.352L58.7265 95.1678C59.2048 93.6959 58.3993 92.1149 56.9273 91.6367Z" fill="#B4F5F2"/>
</svg>
