<svg width="135" height="135" viewBox="0 0 135 135" fill="none" xmlns="http://www.w3.org/2000/svg">
<path fill-rule="evenodd" clip-rule="evenodd" d="M109.292 53.9345C109.292 54.2913 109.286 54.6468 109.274 55.0008C114.289 57.7314 117.699 63.098 117.699 69.2717C117.699 77.0527 112.283 83.5517 105.063 85.107L110.068 75.7725C110.899 74.3895 109.903 72.629 108.289 72.629H107.949H103.537C102.838 72.629 102.354 71.93 102.601 71.2759L106.405 61.1936C107.017 59.624 105.86 57.9301 104.175 57.9301H104.044H87.0252H86.9506C85.8502 57.9301 84.8846 58.6635 84.5893 59.7236L77.6558 84.6097L77.4186 85.461L38.6726 85.4609C26.6005 85.4609 16.8142 75.5424 16.8142 63.3072C16.8142 51.072 26.6005 41.1535 38.6726 41.1535C42.3155 41.1535 45.7504 42.0567 48.7709 43.6543C52.9768 31.2902 64.5578 22.408 78.1858 22.408C95.3652 22.408 109.292 36.5229 109.292 53.9345Z" fill="white"/>
<path fill-rule="evenodd" clip-rule="evenodd" d="M39.3844 93.4359C39.8627 91.964 41.4437 91.1584 42.9156 91.6367C44.3875 92.115 45.1931 93.6959 44.7148 95.1679L39.781 110.352C39.3028 111.824 37.7218 112.63 36.2499 112.152C34.7779 111.673 33.9724 110.092 34.4507 108.621L39.3844 93.4359ZM54.1991 91.6367C52.7271 91.1584 51.1462 91.964 50.6679 93.4359L41.1194 122.823C40.6411 124.295 41.4467 125.876 42.9186 126.354C44.3906 126.833 45.9715 126.027 46.4498 124.555L55.9983 95.1679C56.4766 93.6959 55.671 92.115 54.1991 91.6367ZM65.4825 91.6367C64.0106 91.1584 62.4296 91.964 61.9514 93.4359L54.7102 115.722C54.232 117.194 55.0375 118.775 56.5095 119.253C57.9814 119.731 59.5624 118.926 60.0406 117.454L67.2818 95.1679C67.76 93.6959 66.9545 92.115 65.4825 91.6367ZM76.7655 91.6367C75.2935 91.1584 73.7126 91.964 73.2343 93.4359L68.3005 108.621C67.8222 110.092 68.6278 111.673 70.0997 112.152C71.5717 112.63 73.1526 111.824 73.6309 110.352L78.5647 95.1679C79.0429 93.6959 78.2374 92.115 76.7655 91.6367Z" fill="#B4F5F2"/>
<path fill-rule="evenodd" clip-rule="evenodd" d="M88.4028 61.25C87.8957 61.25 87.4517 61.5905 87.3202 62.0803L81.4296 84.0208C81.2384 84.7329 81.7749 85.4324 82.5122 85.4324H90.42C91.089 85.4324 91.609 86.0146 91.5339 86.6793L89.4182 105.401C89.2781 106.642 90.9646 107.148 91.531 106.036L106.249 77.1349C106.629 76.3891 106.087 75.5053 105.251 75.5053H98.7862C97.9913 75.5053 97.449 74.7009 97.747 73.964L102.266 62.7912C102.564 62.0544 102.022 61.25 101.227 61.25H88.4028Z" fill="#FFF686"/>
</svg>
