<svg width="135" height="135" viewBox="0 0 135 135" fill="none" xmlns="http://www.w3.org/2000/svg">
<path fill-rule="evenodd" clip-rule="evenodd" d="M64.5994 52.7022L54.8501 43.3127C53.704 42.2089 53.6933 40.4296 54.844 39.3214C55.9867 38.2208 57.8412 38.2224 58.9883 39.3272L64.5994 44.7313V27.9653C64.5994 26.404 65.8982 25.1383 67.5255 25.1383C69.1416 25.1383 70.4516 26.387 70.4516 27.9653V44.8214L76.1564 39.3272C77.3024 38.2234 79.1499 38.2131 80.3006 39.3214C81.4433 40.4219 81.4416 42.2079 80.2945 43.3127L70.4516 52.7923V95.5706L80.3267 105.081C81.4738 106.186 81.4755 107.972 80.3327 109.072C79.1821 110.181 77.3346 110.17 76.1885 109.067L70.4516 103.541V120.477C70.4516 122.038 69.1528 123.304 67.5255 123.304C65.9095 123.304 64.5994 122.055 64.5994 120.477V103.553L58.8741 109.067C57.727 110.171 55.8726 110.173 54.7299 109.072C53.5792 107.964 53.5899 106.185 54.7359 105.081L64.5994 95.5817V52.7022Z" fill="white"/>
<path fill-rule="evenodd" clip-rule="evenodd" d="M87.2314 82.2609L100.175 78.5051C101.696 78.0636 103.234 78.944 103.616 80.4955C103.996 82.0363 103.071 83.6428 101.548 84.0847L94.0987 86.2464L107.305 94.7096C108.65 95.4902 109.094 97.2489 108.283 98.6594C107.479 100.06 105.751 100.571 104.391 99.7822L91.1075 91.2739L93.0009 98.9658C93.3813 100.511 92.4704 102.118 90.9427 102.561C89.4257 103.001 87.8878 102.107 87.5071 100.56L84.2402 87.2885L47.3848 65.8994L34.2746 69.7036C32.7517 70.1455 31.2122 69.254 30.8329 67.7132C30.451 66.1617 31.3796 64.5655 32.9011 64.124L40.5174 61.9139L27.1659 53.3661C25.8208 52.5855 25.3769 50.8268 26.1871 49.4163C26.9916 48.0155 28.7197 47.5043 30.0795 48.2935L43.4214 56.8357L41.5212 49.1161C41.1404 47.5694 42.0623 45.9612 43.5793 45.521C45.107 45.0777 46.6346 45.9766 47.015 47.5219L50.2887 60.8211L87.2314 82.2609Z" fill="white"/>
<path fill-rule="evenodd" clip-rule="evenodd" d="M50.1546 87.377L46.9188 100.522C46.5384 102.068 45.0108 102.966 43.4831 102.523C41.966 102.083 41.0442 100.475 41.4249 98.9281L43.2873 91.3624L30.0814 99.8256C28.7363 100.606 26.9992 100.113 26.189 98.7028C25.3845 97.302 25.8081 95.5421 27.1679 94.753L40.4514 86.2447L32.8778 84.047C31.3563 83.6055 30.4276 82.0093 30.8095 80.4578C31.1888 78.917 32.7284 78.0255 34.2512 78.4674L47.3187 82.2592L84.1742 60.8701L87.4517 47.5552C87.8324 46.0086 89.3703 45.1141 90.8874 45.5543C92.415 45.9976 93.3259 47.6041 92.9455 49.1494L91.0415 56.8846L104.393 48.3369C105.738 47.5562 107.475 48.0492 108.285 49.4597C109.09 50.8605 108.666 52.6204 107.307 53.4095L93.9646 61.9517L101.566 64.1573C103.088 64.5992 104.013 66.2058 103.634 67.7466C103.252 69.2981 101.714 70.1785 100.192 69.737L87.0973 65.9372L50.1546 87.377Z" fill="white"/>
<path d="M61.0368 52.996L52.9424 45.2444C50.6509 43.0499 50.6404 39.4515 52.9363 37.2528C55.1592 35.124 58.7157 35.1284 60.9402 37.2587L61.9398 38.0991V27.8384C61.9398 24.72 64.5133 22.2411 67.6547 22.2411C70.7907 22.2411 73.3696 24.7082 73.3696 27.8384V38.0991L74.4637 37.2587C76.689 35.1276 80.2384 35.1181 82.4675 37.2528C84.7571 39.4455 84.7523 43.0505 82.4614 45.2444L74.3671 52.996H83.5824L85.1035 46.8517C85.8635 43.7815 88.979 41.9781 92.0176 42.8548C94.9845 43.7109 96.7502 46.7866 96.0097 49.7778L95.602 51.3844L100.274 48.1475C101.402 46.4587 102.059 44.4381 102.059 42.267C102.059 38.1755 99.7275 34.619 96.2985 32.8094C96.3065 32.5748 96.3105 32.3392 96.3105 32.1027C96.3105 20.5637 86.7879 11.2094 75.0413 11.2094C65.7231 11.2094 57.8044 17.0958 54.9286 25.2898C52.8633 24.231 50.5147 23.6324 48.0238 23.6324C39.7694 23.6324 33.0779 30.2057 33.0779 38.3142C33.0779 42.9701 35.2841 47.1199 38.7256 49.8096L38.7095 49.7443C37.9693 46.7543 39.7428 43.675 42.7016 42.8213C45.7486 41.9421 48.8554 43.747 49.6157 46.8182L51.145 52.996H61.0368Z" fill="white"/>
</svg>
