<svg width="135" height="135" viewBox="0 0 135 135" fill="none" xmlns="http://www.w3.org/2000/svg">
<path fill-rule="evenodd" clip-rule="evenodd" d="M101.445 60.5308C113.517 60.5308 123.304 50.7445 123.304 38.6725C123.304 26.6004 113.517 16.8141 101.445 16.8141C89.3732 16.8141 79.5869 26.6004 79.5869 38.6725C79.5869 40.2202 80.8415 41.4748 82.3892 41.4748C83.9369 41.4748 85.1916 40.2202 85.1916 38.6725C85.1916 29.6958 92.4686 22.4188 101.445 22.4188C110.422 22.4188 117.699 29.6958 117.699 38.6725C117.699 47.6491 110.422 54.9261 101.445 54.9261C101.253 54.9261 101.066 54.9454 100.885 54.9822C100.704 54.9454 100.516 54.9261 100.324 54.9261H14.0118C12.4641 54.9261 11.2095 56.1808 11.2095 57.7285C11.2095 59.2762 12.4641 60.5308 14.0118 60.5308H100.324C100.516 60.5308 100.704 60.5115 100.885 60.4748C101.066 60.5115 101.253 60.5308 101.445 60.5308ZM11.2095 68.9379C11.2095 70.4856 12.4641 71.7402 14.0118 71.7402H79.5869C86.7063 71.7402 92.4777 77.5117 92.4777 84.6311C92.4777 91.7505 86.7063 97.5219 79.5869 97.5219C78.0392 97.5219 76.7845 98.7765 76.7845 100.324C76.7845 101.872 78.0392 103.127 79.5869 103.127C89.8017 103.127 98.0824 94.8459 98.0824 84.6311C98.0824 75.3401 91.2318 67.6492 82.3063 66.334C81.9852 66.206 81.635 66.1355 81.2683 66.1355H79.5869H14.0118C12.4641 66.1355 11.2095 67.3902 11.2095 68.9379ZM14.0118 77.3449C12.4641 77.3449 11.2095 78.5996 11.2095 80.1473C11.2095 81.695 12.4641 82.9496 14.0118 82.9496H65.0146C66.5623 82.9496 67.817 81.695 67.817 80.1473C67.817 78.5996 66.5623 77.3449 65.0146 77.3449H14.0118Z" fill="white"/>
</svg>
